<svg xmlns="http://www.w3.org/2000/svg" xmlns:xlink="http://www.w3.org/1999/xlink" version="1.1" width="512" height="512" viewBox="0 0 512 512" xml:space="preserve">
<desc>Created with Fabric.js 3.5.0</desc>
<defs>
</defs>
<rect x="0" y="0" width="100%" height="100%" fill="rgba(255,255,255,0)"/>
<g transform="matrix(1.0358 0 0 1.0358 256.0055 256.0059)" id="175191">
<g style="" vector-effect="non-scaling-stroke">
		<g transform="matrix(0.9593 0 0 0.9593 6.7194 -63.8429)" id="Layer_1">
<path style="stroke: none; stroke-width: 1; stroke-dasharray: none; stroke-linecap: butt; stroke-dashoffset: 0; stroke-linejoin: miter; stroke-miterlimit: 4; is-custom-font: none; font-file-url: none; fill: rgb(250,174,59); fill-rule: nonzero; opacity: 1;" transform=" translate(-256.9746, -186.965)" d="M 360.62 93.33 c 1.11 18.72 -33.87 73.85 -33.87 73.85 C 305.59 76.87 192.91 10.68 192.91 10.68 s 26.67 31.6 -30.1 124 s -31.29 150.15 -31.29 150.15 h 0 c 12.3 44.84 62.05 78.42 121.64 78.42 s 104 -36.12 121.64 -78.42 h 0.05 C 411.52 203.21 360.62 93.33 360.62 93.33 Z" stroke-linecap="round"/>
</g>
		<g transform="matrix(0.9593 0 0 0.9593 2.6618 38.0204)" id="Layer_1">
<path style="stroke: none; stroke-width: 1; stroke-dasharray: none; stroke-linecap: butt; stroke-dashoffset: 0; stroke-linejoin: miter; stroke-miterlimit: 4; is-custom-font: none; font-file-url: none; fill: rgb(238,55,52); fill-rule: nonzero; opacity: 1;" transform=" translate(-252.745, -293.15)" d="M 201.59 311.38 c 0 -29 51.16 -88.94 51.16 -88.94 s 51.15 60 51.15 88.94 s -22.9 52.48 -51.15 52.48 S 201.59 340.37 201.59 311.38 Z" stroke-linecap="round"/>
</g>
		<g transform="matrix(0.9593 0 0 0.9593 27.2999 -63.819)" id="Layer_1">
<path style="stroke: none; stroke-width: 1; stroke-dasharray: none; stroke-linecap: butt; stroke-dashoffset: 0; stroke-linejoin: miter; stroke-miterlimit: 4; is-custom-font: none; font-file-url: none; fill: rgb(0,0,0); fill-rule: nonzero; opacity: 0.15;" transform=" translate(-278.4283, -186.99)" d="M 168.71 336.69 c 22.2 16.49 51.85 26.61 84.49 26.61 c 59.6 0 104 -36.12 121.64 -78.42 h 0.05 c 36.63 -81.67 -14.27 -191.55 -14.27 -191.55 c 1.11 18.72 -33.87 73.85 -33.87 73.85 C 305.59 76.87 192.91 10.68 192.91 10.68 S 438.82 258.17 168.71 336.69 Z" stroke-linecap="round"/>
</g>
		<g transform="matrix(0.931 -0.2314 0.2314 0.931 -186.6037 192.2649)" id="Layer_1">
<ellipse style="stroke: none; stroke-width: 1; stroke-dasharray: none; stroke-linecap: butt; stroke-dashoffset: 0; stroke-linejoin: miter; stroke-miterlimit: 4; is-custom-font: none; font-file-url: none; fill: rgb(81,59,44); fill-rule: nonzero; opacity: 1;" cx="0" cy="0" rx="22.06" ry="36.04"/>
</g>
		<g transform="matrix(0.9593 0 0 0.9593 -195.3136 158.8681)" id="Layer_1">
<path style="stroke: none; stroke-width: 1; stroke-dasharray: none; stroke-linecap: butt; stroke-dashoffset: 0; stroke-linejoin: miter; stroke-miterlimit: 4; is-custom-font: none; font-file-url: none; fill: rgb(255,255,255); fill-rule: nonzero; opacity: 1;" transform=" translate(-46.37, -419.125)" d="M 46 419.29 c 0.27 -0.08 0.5 -0.26 0.78 -0.33 l -0.82 0.2 Z" stroke-linecap="round"/>
</g>
		<g transform="matrix(0.9593 0 0 0.9593 -178.6362 225.9089)" id="Layer_1">
<path style="stroke: none; stroke-width: 1; stroke-dasharray: none; stroke-linecap: butt; stroke-dashoffset: 0; stroke-linejoin: miter; stroke-miterlimit: 4; is-custom-font: none; font-file-url: none; fill: rgb(255,255,255); fill-rule: nonzero; opacity: 1;" transform=" translate(-63.755, -489.01)" d="M 63.36 489.11 l 0.82 -0.2 c -0.28 0.07 -0.57 0 -0.85 0.07 Z" stroke-linecap="round"/>
</g>
		<g transform="matrix(0.9593 0 0 0.9593 6.943 146.8851)" id="Layer_1">
<path style="stroke: none; stroke-width: 1; stroke-dasharray: none; stroke-linecap: butt; stroke-dashoffset: 0; stroke-linejoin: miter; stroke-miterlimit: 4; is-custom-font: none; font-file-url: none; fill: rgb(179,129,75); fill-rule: nonzero; opacity: 1;" transform=" translate(-257.2077, -406.6334)" d="M 466.56 351.71 a 36 36 0 0 0 -43.67 -26.28 L 46.78 419 c 11.83 -2.94 25.31 10.33 30.11 29.65 S 76 486 64.18 488.91 l 376.1 -93.52 A 36 36 0 0 0 466.56 351.71 Z" stroke-linecap="round"/>
</g>
		<g transform="matrix(0.9593 0 0 0.9593 14.773 160.0049)" id="Layer_1">
<polygon style="stroke: none; stroke-width: 1; stroke-dasharray: none; stroke-linecap: butt; stroke-dashoffset: 0; stroke-linejoin: miter; stroke-miterlimit: 4; is-custom-font: none; font-file-url: none; fill: rgb(0,0,0); fill-rule: nonzero; opacity: 0.15;" points="-201.19,68.6 174.91,-24.92 201.19,-68.6 -188.48,28.3 -201.19,68.6 "/>
</g>
		<g transform="matrix(0.2314 -0.931 0.931 0.2314 186.6037 192.2157)" id="Layer_1">
<ellipse style="stroke: none; stroke-width: 1; stroke-dasharray: none; stroke-linecap: butt; stroke-dashoffset: 0; stroke-linejoin: miter; stroke-miterlimit: 4; is-custom-font: none; font-file-url: none; fill: rgb(81,59,44); fill-rule: nonzero; opacity: 1;" cx="0" cy="0" rx="36.04" ry="22.06"/>
</g>
		<g transform="matrix(0.9593 0 0 0.9593 195.3709 158.8681)" id="Layer_1">
<path style="stroke: none; stroke-width: 1; stroke-dasharray: none; stroke-linecap: butt; stroke-dashoffset: 0; stroke-linejoin: miter; stroke-miterlimit: 4; is-custom-font: none; font-file-url: none; fill: rgb(255,255,255); fill-rule: nonzero; opacity: 1;" transform=" translate(-453.63, -419.125)" d="M 454 419.29 c -0.27 -0.08 -0.5 -0.26 -0.78 -0.33 l 0.82 0.2 Z" stroke-linecap="round"/>
</g>
		<g transform="matrix(0.9593 0 0 0.9593 178.6935 225.9089)" id="Layer_1">
<path style="stroke: none; stroke-width: 1; stroke-dasharray: none; stroke-linecap: butt; stroke-dashoffset: 0; stroke-linejoin: miter; stroke-miterlimit: 4; is-custom-font: none; font-file-url: none; fill: rgb(255,255,255); fill-rule: nonzero; opacity: 1;" transform=" translate(-436.245, -489.01)" d="M 436.64 489.11 l -0.82 -0.2 c 0.28 0.07 0.57 0 0.85 0.07 Z" stroke-linecap="round"/>
</g>
		<g transform="matrix(0.9593 0 0 0.9593 -6.8858 146.9042)" id="Layer_1">
<path style="stroke: none; stroke-width: 1; stroke-dasharray: none; stroke-linecap: butt; stroke-dashoffset: 0; stroke-linejoin: miter; stroke-miterlimit: 4; is-custom-font: none; font-file-url: none; fill: rgb(179,129,75); fill-rule: nonzero; opacity: 1;" transform=" translate(-242.7923, -406.6534)" d="M 33.44 351.71 a 36 36 0 0 1 43.67 -26.28 L 453.22 419 c -11.83 -2.94 -25.31 10.33 -30.11 29.65 s 0.89 37.36 12.71 40.3 L 59.72 395.39 A 36 36 0 0 1 33.44 351.71 Z" stroke-linecap="round"/>
</g>
		<g transform="matrix(0.9593 0 0 0.9593 -14.7159 160.0049)" id="Layer_1">
<polygon style="stroke: none; stroke-width: 1; stroke-dasharray: none; stroke-linecap: butt; stroke-dashoffset: 0; stroke-linejoin: miter; stroke-miterlimit: 4; is-custom-font: none; font-file-url: none; fill: rgb(0,0,0); fill-rule: nonzero; opacity: 0.15;" points="201.19,68.6 -174.91,-24.92 -201.19,-68.6 188.48,28.3 201.19,68.6 "/>
</g>
		<g transform="matrix(0.9593 0 0 0.9593 6.7194 -63.8429)" id="Layer_1">
<path style="stroke: rgb(0,0,0); stroke-width: 20; stroke-dasharray: none; stroke-linecap: round; stroke-dashoffset: 0; stroke-linejoin: round; stroke-miterlimit: 4; is-custom-font: none; font-file-url: none; fill: none; fill-rule: nonzero; opacity: 1;" transform=" translate(-256.9746, -186.965)" d="M 360.62 93.33 c 1.11 18.72 -33.87 73.85 -33.87 73.85 C 305.59 76.87 192.91 10.68 192.91 10.68 s 26.67 31.6 -30.1 124 s -31.29 150.15 -31.29 150.15 h 0 c 12.3 44.84 62.05 78.42 121.64 78.42 s 104 -36.12 121.64 -78.42 h 0.05 C 411.52 203.21 360.62 93.33 360.62 93.33 Z" stroke-linecap="round"/>
</g>
		<g transform="matrix(0.9593 0 0 0.9593 2.6619 38.0203)" id="Layer_1">
<path style="stroke: rgb(0,0,0); stroke-width: 20; stroke-dasharray: none; stroke-linecap: round; stroke-dashoffset: 0; stroke-linejoin: round; stroke-miterlimit: 4; is-custom-font: none; font-file-url: none; fill: none; fill-rule: nonzero; opacity: 1;" transform=" translate(-252.745, -293.15)" d="M 201.59 311.38 c 0 -29 51.16 -88.94 51.16 -88.94 s 51.15 60 51.15 88.94 s -22.9 52.48 -51.15 52.48 S 201.59 340.37 201.59 311.38 Z" stroke-linecap="round"/>
</g>
		<g transform="matrix(0.931 -0.2314 0.2314 0.931 -186.6037 192.2649)" id="Layer_1">
<ellipse style="stroke: rgb(0,0,0); stroke-width: 20; stroke-dasharray: none; stroke-linecap: round; stroke-dashoffset: 0; stroke-linejoin: round; stroke-miterlimit: 4; is-custom-font: none; font-file-url: none; fill: none; fill-rule: nonzero; opacity: 1;" cx="0" cy="0" rx="22.06" ry="36.04"/>
</g>
		<g transform="matrix(0.2314 -0.931 0.931 0.2314 186.6037 192.2155)" id="Layer_1">
<ellipse style="stroke: rgb(0,0,0); stroke-width: 20; stroke-dasharray: none; stroke-linecap: round; stroke-dashoffset: 0; stroke-linejoin: round; stroke-miterlimit: 4; is-custom-font: none; font-file-url: none; fill: none; fill-rule: nonzero; opacity: 1;" cx="0" cy="0" rx="36.04" ry="22.06"/>
</g>
		<g transform="matrix(0.9593 0 0 0.9593 195.3709 158.8682)" id="Layer_1">
<path style="stroke: rgb(0,0,0); stroke-width: 20; stroke-dasharray: none; stroke-linecap: round; stroke-dashoffset: 0; stroke-linejoin: round; stroke-miterlimit: 4; is-custom-font: none; font-file-url: none; fill: none; fill-rule: nonzero; opacity: 1;" transform=" translate(-453.63, -419.125)" d="M 454 419.29 c -0.27 -0.08 -0.5 -0.26 -0.78 -0.33 l 0.82 0.2 Z" stroke-linecap="round"/>
</g>
		<g transform="matrix(0.9593 0 0 0.9593 178.6934 225.9088)" id="Layer_1">
<path style="stroke: rgb(0,0,0); stroke-width: 20; stroke-dasharray: none; stroke-linecap: round; stroke-dashoffset: 0; stroke-linejoin: round; stroke-miterlimit: 4; is-custom-font: none; font-file-url: none; fill: none; fill-rule: nonzero; opacity: 1;" transform=" translate(-436.245, -489.01)" d="M 436.64 489.11 l -0.82 -0.2 c 0.28 0.07 0.57 0 0.85 0.07 Z" stroke-linecap="round"/>
</g>
		<g transform="matrix(0.9593 0 0 0.9593 -6.8858 146.9042)" id="Layer_1">
<path style="stroke: rgb(0,0,0); stroke-width: 20; stroke-dasharray: none; stroke-linecap: round; stroke-dashoffset: 0; stroke-linejoin: round; stroke-miterlimit: 4; is-custom-font: none; font-file-url: none; fill: none; fill-rule: nonzero; opacity: 1;" transform=" translate(-242.7923, -406.6534)" d="M 33.44 351.71 a 36 36 0 0 1 43.67 -26.28 L 453.22 419 c -11.83 -2.94 -25.31 10.33 -30.11 29.65 s 0.89 37.36 12.71 40.3 L 59.72 395.39 A 36 36 0 0 1 33.44 351.71 Z" stroke-linecap="round"/>
</g>
		<g transform="matrix(0.9593 0 0 0.9593 -97.4458 185.8341)" id="Layer_1">
<path style="stroke: rgb(0,0,0); stroke-width: 20; stroke-dasharray: none; stroke-linecap: round; stroke-dashoffset: 0; stroke-linejoin: round; stroke-miterlimit: 4; is-custom-font: none; font-file-url: none; fill: none; fill-rule: nonzero; opacity: 1;" transform=" translate(-148.39, -447.235)" d="M 64.18 488.91 L 250 442.7 L 100.64 405.56 L 46.78 419 c 11.83 -2.94 25.31 10.33 30.11 29.65 S 76 486 64.18 488.91 Z" stroke-linecap="round"/>
</g>
		<g transform="matrix(0.9593 0 0 0.9593 104.4175 106.9062)" id="Layer_1">
<path style="stroke: rgb(0,0,0); stroke-width: 20; stroke-dasharray: none; stroke-linecap: round; stroke-dashoffset: 0; stroke-linejoin: round; stroke-miterlimit: 4; is-custom-font: none; font-file-url: none; fill: none; fill-rule: nonzero; opacity: 1;" transform=" translate(-358.8177, -364.9584)" d="M 466.56 351.71 a 36 36 0 0 0 -43.67 -26.28 L 250 368.42 l 149.36 37.14 l 40.92 -10.17 A 36 36 0 0 0 466.56 351.71 Z" stroke-linecap="round"/>
</g>
</g>
</g>
</svg>